<svg id="Capa_1" enable-background="new 0 0 510 510" height="512" viewBox="0 0 510 510" width="512" xmlns="http://www.w3.org/2000/svg"><path d="m503.84 84.73v83.08l-248.84 20.53-248.84-20.53v-83.08c0-17.18 13.93-31.1 31.11-31.1h435.46c17.18 0 31.11 13.92 31.11 31.1z" fill="#00c0f1"/><path d="m503.84 84.73v83.08l-248.84 20.53v-134.71h217.73c17.18 0 31.11 13.92 31.11 31.1z" fill="#009ae4"/><path d="m109.656 107.253c-14.299 0-25.891-11.592-25.891-25.891v-55.471c0-14.299 11.592-25.891 25.891-25.891 14.299 0 25.891 11.592 25.891 25.891v55.471c0 14.299-11.591 25.891-25.891 25.891z" fill="#685e68"/><path d="m400.344 107.253c-14.299 0-25.891-11.592-25.891-25.891v-55.471c0-14.299 11.591-25.891 25.891-25.891 14.299 0 25.891 11.592 25.891 25.891v55.471c0 14.299-11.592 25.891-25.891 25.891z" fill="#40383f"/><path d="m503.84 167.81v311.09c0 17.17-13.93 31.1-31.11 31.1h-435.46c-17.18 0-31.11-13.93-31.11-31.1v-311.09z" fill="#f4f1f4"/><path d="m503.84 167.81v311.09c0 17.17-13.93 31.1-31.11 31.1h-217.73v-342.19z" fill="#d8d2d7"/><path d="m288.56 237.5c-10.97 10.97-17.01 25.56-17.01 41.07v20.99h-30v-20.99c0-16.84 4.69-32.95 13.45-46.85 3.49-5.52 7.62-10.7 12.35-15.43 5.86-5.86 15.35-5.86 21.21 0 5.86 5.85 5.86 15.35 0 21.21z" fill="#804231"/><path d="m363.384 345.013c0 61.159-30.046 109.331-108.384 109.331s-108.384-48.172-108.384-109.331c0-59.302 48.568-94.595 103.233-63.639 1.593.898 3.378 1.354 5.152 1.354s3.558-.455 5.152-1.354c54.664-30.957 103.231 4.337 103.231 63.639z" fill="#ff7cb8"/><path d="m363.384 345.013c0 61.159-30.046 109.331-108.384 109.331v-171.616c1.773 0 3.558-.455 5.152-1.354 54.665-30.957 103.232 4.337 103.232 63.639z" fill="#ff3980"/></svg>